<svg width="64" height="64" viewBox="0 0 64 64" fill="none" xmlns="http://www.w3.org/2000/svg">
<path fill-rule="evenodd" clip-rule="evenodd" d="M9 17C7.89543 17 7 17.8954 7 19V45C7 46.1046 7.89543 47 9 47H55C56.1046 47 57 46.1046 57 45V19C57 17.8954 56.1046 17 55 17H9ZM45 19C43.8954 19 43 19.8954 43 21V34C43 35.1046 43.8954 36 45 36H53C54.1046 36 55 35.1046 55 34V21C55 19.8954 54.1046 19 53 19H45ZM9 36C9 34.3431 10.3431 33 12 33H24C25.6569 33 27 34.3431 27 36C27 37.6569 25.6569 39 24 39H12C10.3431 39 9 37.6569 9 36ZM11 41C9.89543 41 9 41.8954 9 43C9 44.1046 9.89543 45 11 45H34C35.1046 45 36 44.1046 36 43C36 41.8954 35.1046 41 34 41H11Z" fill="#2E3436"/>
</svg>
