<svg width="64" height="64" viewBox="0 0 64 64" fill="none" xmlns="http://www.w3.org/2000/svg">
<rect x="7.10864" y="20.086" width="50" height="30" rx="2" transform="rotate(2.11788 7.10864 20.086)" fill="url(#paint0_linear_8_110)"/>
<rect x="7.10864" y="20.086" width="50" height="30" rx="2" transform="rotate(2.11788 7.10864 20.086)" fill="#FF9D00" fill-opacity="0.2"/>
<rect x="7.14575" y="19.0867" width="50" height="30" rx="2" transform="rotate(2.11788 7.14575 19.0867)" fill="#F7F5F4"/>
<rect x="7.14575" y="19.0867" width="50" height="30" rx="2" transform="rotate(2.11788 7.14575 19.0867)" fill="#FF9D00" fill-opacity="0.2"/>
<rect x="6.8374" y="18.525" width="50" height="30" rx="2" transform="rotate(1.09465 6.8374 18.525)" fill="url(#paint1_linear_8_110)"/>
<rect x="6.8374" y="18.525" width="50" height="30" rx="2" transform="rotate(1.09465 6.8374 18.525)" fill="#F16262" fill-opacity="0.2"/>
<rect x="6.85657" y="17.5252" width="50" height="30" rx="2" transform="rotate(1.09465 6.85657 17.5252)" fill="#F7F5F4"/>
<rect x="6.85657" y="17.5252" width="50" height="30" rx="2" transform="rotate(1.09465 6.85657 17.5252)" fill="#F16262" fill-opacity="0.2"/>
<rect x="6.55591" y="17" width="50" height="30" rx="2" fill="url(#paint2_linear_8_110)"/>
<rect x="6.55591" y="16" width="50" height="30" rx="2" fill="#F7F5F4"/>
<rect x="44.0559" y="17.5" width="11" height="16" rx="1.5" fill="#C1BFBB" stroke="white"/>
<path d="M49.56 21.0001C49.2258 21.0016 48.9067 21.0298 48.6259 21.079C47.7986 21.2238 47.6484 21.5267 47.6484 22.0854V22.8233H49.6033V23.0692H47.6484H46.9148C46.3466 23.0692 45.8491 23.4074 45.6935 24.0508C45.514 24.7882 45.5061 25.2484 45.6935 26.0184C45.8325 26.5916 46.1643 27 46.7325 27H47.4046V26.1155C47.4046 25.4764 47.9629 24.9128 48.6259 24.9128H50.5785C51.122 24.9128 51.5559 24.4696 51.5559 23.929V22.0854C51.5559 21.5607 51.109 21.1666 50.5785 21.079C50.2426 21.0237 49.8942 20.9985 49.56 21.0001ZM48.5028 21.5935C48.7047 21.5935 48.8696 21.7595 48.8696 21.9636C48.8696 22.1669 48.7047 22.3314 48.5028 22.3314C48.3002 22.3314 48.136 22.1669 48.136 21.9636C48.136 21.7595 48.3002 21.5935 48.5028 21.5935Z" fill="url(#paint3_linear_8_110)"/>
<path d="M51.6988 23V23.8532C51.6988 24.5146 51.1293 25.0713 50.48 25.0713H48.5314C47.9976 25.0713 47.5559 25.5212 47.5559 26.0477V27.8772C47.5559 28.3979 48.0157 28.7041 48.5314 28.8535C49.1489 29.0323 49.7411 29.0647 50.48 28.8535C50.9712 28.7135 51.4555 28.4316 51.4555 27.8772V27.1449H49.5068V26.9008H51.4555H52.4309C52.9979 26.9008 53.2092 26.5114 53.4064 25.9268C53.6101 25.3249 53.6014 24.7461 53.4064 23.9741C53.2663 23.4182 52.9986 23 52.4309 23H51.6988ZM50.6028 27.6331C50.805 27.6331 50.9689 27.7963 50.9689 27.9981C50.9689 28.2006 50.805 28.3653 50.6028 28.3653C50.4013 28.3653 50.2367 28.2006 50.2367 27.9981C50.2367 27.7963 50.4013 27.6331 50.6028 27.6331Z" fill="url(#paint4_linear_8_110)"/>
<rect x="7.55591" y="31" width="16" height="4" rx="2" fill="#77767B"/>
<rect x="7.55591" y="37" width="25" height="2" rx="1" fill="#C1BFBB"/>
<rect x="7.55591" y="40" width="25" height="2" rx="1" fill="#C1BFBB"/>
<rect x="7.55591" y="43" width="25" height="2" rx="1" fill="#C1BFBB"/>
<defs>
<linearGradient id="paint0_linear_8_110" x1="7.10864" y1="50.086" x2="57.1086" y2="50.086" gradientUnits="userSpaceOnUse">
<stop stop-color="#C1BFBB"/>
<stop offset="0.02" stop-color="#F7F5F4"/>
<stop offset="0.04" stop-color="#C1BFBB"/>
<stop offset="0.96" stop-color="#C1BFBB"/>
<stop offset="0.98" stop-color="#F7F5F4"/>
<stop offset="1" stop-color="#C1BFBB"/>
</linearGradient>
<linearGradient id="paint1_linear_8_110" x1="6.8374" y1="48.525" x2="56.8374" y2="48.525" gradientUnits="userSpaceOnUse">
<stop stop-color="#C1BFBB"/>
<stop offset="0.02" stop-color="#F7F5F4"/>
<stop offset="0.04" stop-color="#C1BFBB"/>
<stop offset="0.96" stop-color="#C1BFBB"/>
<stop offset="0.98" stop-color="#F7F5F4"/>
<stop offset="1" stop-color="#C1BFBB"/>
</linearGradient>
<linearGradient id="paint2_linear_8_110" x1="6.55591" y1="47" x2="56.5559" y2="47" gradientUnits="userSpaceOnUse">
<stop stop-color="#C1BFBB"/>
<stop offset="0.02" stop-color="#F7F5F4"/>
<stop offset="0.04" stop-color="#C1BFBB"/>
<stop offset="0.96" stop-color="#C1BFBB"/>
<stop offset="0.98" stop-color="#F7F5F4"/>
<stop offset="1" stop-color="#C1BFBB"/>
</linearGradient>
<linearGradient id="paint3_linear_8_110" x1="45.5559" y1="21" x2="50.0269" y2="24.847" gradientUnits="userSpaceOnUse">
<stop stop-color="#5A9FD4"/>
<stop offset="1" stop-color="#306998"/>
</linearGradient>
<linearGradient id="paint4_linear_8_110" x1="50.5559" y1="27.9365" x2="48.9745" y2="25.6864" gradientUnits="userSpaceOnUse">
<stop stop-color="#FFD43B"/>
<stop offset="1" stop-color="#FFE873"/>
</linearGradient>
</defs>
</svg>
